<?xml version="1.0" standalone="no"?>
<!DOCTYPE svg PUBLIC "-//W3C//DTD SVG 20010904//EN" "http://www.w3.org/TR/2001/REC-SVG-20010904/DTD/svg10.dtd">
<svg version="1.0" xmlns="http://www.w3.org/2000/svg"
    width="101.000000pt" height="128.000000pt" viewBox="0 0 101.000000 128.000000"
    preserveAspectRatio="xMidYMid meet">
    <metadata> Created by potrace 1.10, written by Peter Selinger 2001-2011 </metadata>
    <g transform="translate(0.000000,128.000000) scale(0.100000,-0.100000)"
        fill="#000000" stroke="none">
        <path
            d="M695 1246 c-74 -16 -115 -31 -157 -58 -60 -39 -134 -107 -160 -148
l-15 -25 -38 38 c-43 43 -59 41 -26 -4 26 -35 21 -51 -9 -24 -11 10 -22 16
-25 13 -3 -3 4 -13 14 -22 19 -18 19 -19 -22 -80 -124 -185 -130 -217 -62
-341 l44 -82 -23 -22 c-13 -13 -33 -44 -44 -71 -18 -42 -18 -51 -6 -61 8 -6
14 -14 14 -18 0 -4 -29 -37 -66 -74 -36 -37 -72 -83 -80 -103 -19 -44 -31
-164 -17 -164 6 0 13 31 16 69 7 82 19 109 82 179 57 63 79 71 111 41 l24 -22
47 29 c33 21 50 39 56 61 l9 31 57 -39 c72 -50 117 -52 183 -9 26 17 48 37 51
44 3 7 39 41 80 74 57 47 77 58 86 49 9 -9 14 -9 21 2 6 10 2 20 -13 32 -12 9
-31 34 -42 55 -23 46 -55 90 -55 78 0 -5 -7 0 -15 10 -22 29 -31 11 -11 -20
34 -51 9 -32 -47 36 l-57 70 32 36 c68 77 193 153 253 154 34 0 95 -33 95 -53
0 -33 -49 -99 -128 -174 -48 -45 -84 -85 -80 -88 4 -4 26 12 50 35 24 23 58
53 75 67 46 35 107 138 99 166 -7 28 -73 67 -112 67 -60 -1 -182 -76 -257
-159 l-39 -43 -22 21 c-12 12 -25 19 -28 16 -3 -3 -18 9 -33 27 l-27 32 34 28
c18 15 77 57 130 94 150 101 259 246 202 268 -22 8 -36 7 -149 -18z m145 -15
c0 -35 -99 -148 -173 -198 -40 -26 -101 -70 -136 -98 -38 -29 -66 -45 -68 -38
-7 21 -74 103 -84 103 -17 0 64 97 111 132 83 62 117 78 211 97 126 25 139 25
139 2z m-473 -303 c29 -29 53 -58 53 -66 0 -7 4 -11 8 -8 5 3 44 -31 87 -75
44 -43 85 -79 91 -79 6 0 45 -35 85 -79 41 -43 81 -81 89 -84 11 -5 5 -14 -25
-39 -22 -18 -67 -59 -100 -90 -56 -53 -115 -88 -148 -88 -20 0 -107 59 -180
124 -64 56 -79 78 -148 217 -16 32 -17 41 -5 86 7 27 26 69 41 94 59 93 90
139 95 139 2 0 28 -23 57 -52z m-78 -504 c37 -31 38 -40 9 -71 -39 -42 -88
-22 -88 37 0 29 18 60 35 60 7 0 27 -12 44 -26z" />
    </g>
</svg>